<?xml version="1.0" encoding="UTF-8" standalone="no"?>
<!DOCTYPE svg PUBLIC "-//W3C//DTD SVG 1.1//EN" "http://www.w3.org/Graphics/SVG/1.1/DTD/svg11.dtd">
<svg width="100%" height="100%" viewBox="0 0 2250 2250" version="1.1" xmlns="http://www.w3.org/2000/svg" xmlns:xlink="http://www.w3.org/1999/xlink" xml:space="preserve" xmlns:serif="http://www.serif.com/" style="fill-rule:evenodd;clip-rule:evenodd;stroke-linecap:round;stroke-linejoin:round;stroke-miterlimit:1.5;">
    <g transform="matrix(2.08333,0,0,2.08333,0,0)">
        <g transform="matrix(1,0,0,1,-92.9816,-11.6257)">
            <path d="M632.982,209.503C600.367,213.112 492.343,211.088 469.631,195.685C437.09,173.616 396.52,153.098 331.439,154.42C258.788,169.096 186.82,223.036 177.489,283.123C159.772,410.052 168.057,497.03 200.558,606.382C223.099,672.853 321.717,668.613 349.329,604.499C357.461,499.456 351.923,312.822 377.332,283.418C396.978,260.681 458.884,215.314 632.982,209.503Z" style="fill:none;stroke:black;stroke-width:20px;"/>
        </g>
        <g transform="matrix(1,0,0,1,-92.9816,-11.6257)">
            <path d="M246.029,650.703C223.951,687.716 220.672,751.801 226.216,788.814C243.957,912.968 316.73,960.609 379.695,969.834C443.931,989.113 612.352,919.696 632.982,899.733" style="fill:none;stroke:black;stroke-width:20px;"/>
        </g>
        <g transform="matrix(2.35207,0,0,2.35207,-692.174,-683.815)">
            <path d="M448.979,528.085C443.345,528.085 436.896,528.953 436.896,540C436.896,547.265 440.787,552.885 448.966,552.885C459.991,552.467 462.319,546.568 462.319,540C462.319,533.432 459.129,528.085 448.979,528.085Z" style="stroke:black;stroke-width:8.5px;"/>
        </g>
        <g transform="matrix(4.47508,0,0,2.35207,-1471.91,-557.686)">
            <path d="M448.979,528.085C443.345,528.085 436.896,528.953 436.896,540C436.896,545.878 441.714,549.785 446.206,553.775C447.381,554.819 448.018,610.573 449.58,610.573C450.881,610.523 451.857,554.481 452.889,554.043C458.423,551.694 462.319,545.793 462.319,540C462.319,533.432 459.129,528.085 448.979,528.085Z" style="stroke:black;stroke-width:5.59px;"/>
        </g>
        <g transform="matrix(0.683147,0,0,0.683147,137.205,460.277)">
            <path d="M448.979,528.085C443.345,528.085 436.896,528.953 436.896,540C436.896,547.265 440.787,552.885 448.966,552.885C459.991,552.467 462.319,546.568 462.319,540C462.319,533.432 459.129,528.085 448.979,528.085Z"/>
        </g>
        <g transform="matrix(0.683147,0,0,0.683147,162.913,477.219)">
            <path d="M448.979,528.085C443.345,528.085 436.896,528.953 436.896,540C436.896,547.265 440.787,552.885 448.966,552.885C459.991,552.467 462.319,546.568 462.319,540C462.319,533.432 459.129,528.085 448.979,528.085Z"/>
        </g>
        <g transform="matrix(0.683147,0,0,0.683147,167.158,451.806)">
            <path d="M448.979,528.085C443.345,528.085 436.896,528.953 436.896,540C436.896,547.265 440.787,552.885 448.966,552.885C459.991,552.467 462.319,546.568 462.319,540C462.319,533.432 459.129,528.085 448.979,528.085Z"/>
        </g>
        <g transform="matrix(0.683147,0,0,0.683147,137.205,460.277)">
            <path d="M448.979,528.085C443.345,528.085 436.896,528.953 436.896,540C436.896,547.265 440.787,552.885 448.966,552.885C459.991,552.467 462.319,546.568 462.319,540C462.319,533.432 459.129,528.085 448.979,528.085Z"/>
        </g>
        <g transform="matrix(-1,0,0,1,1172.98,-11.6257)">
            <path d="M632.982,209.503C600.367,213.112 492.343,211.088 469.631,195.685C437.09,173.616 396.52,153.098 331.439,154.42C258.788,169.096 186.82,223.036 177.489,283.123C159.772,410.052 168.057,497.03 200.558,606.382C223.099,672.853 321.717,668.613 349.329,604.499C357.461,499.456 351.923,312.822 377.332,283.418C396.978,260.681 458.884,215.314 632.982,209.503Z" style="fill:none;stroke:black;stroke-width:20px;"/>
        </g>
        <g transform="matrix(-1,0,0,1,1172.98,-11.6257)">
            <path d="M246.029,650.703C223.951,687.716 220.672,751.801 226.216,788.814C243.957,912.968 316.73,960.609 379.695,969.834C443.931,989.113 612.352,919.696 632.982,899.733" style="fill:none;stroke:black;stroke-width:20px;"/>
        </g>
        <g transform="matrix(-2.35207,0,0,2.35207,1772.17,-683.815)">
            <path d="M448.979,528.085C443.345,528.085 436.896,528.953 436.896,540C436.896,547.265 440.787,552.885 448.966,552.885C459.991,552.467 462.319,546.568 462.319,540C462.319,533.432 459.129,528.085 448.979,528.085Z" style="stroke:black;stroke-width:8.5px;"/>
        </g>
        <g transform="matrix(-0.683147,0,0,0.683147,942.795,460.277)">
            <path d="M448.979,528.085C443.345,528.085 436.896,528.953 436.896,540C436.896,547.265 440.787,552.885 448.966,552.885C459.991,552.467 462.319,546.568 462.319,540C462.319,533.432 459.129,528.085 448.979,528.085Z"/>
        </g>
        <g transform="matrix(-0.683147,0,0,0.683147,917.087,477.219)">
            <path d="M448.979,528.085C443.345,528.085 436.896,528.953 436.896,540C436.896,547.265 440.787,552.885 448.966,552.885C459.991,552.467 462.319,546.568 462.319,540C462.319,533.432 459.129,528.085 448.979,528.085Z"/>
        </g>
        <g transform="matrix(-0.683147,0,0,0.683147,912.842,451.806)">
            <path d="M448.979,528.085C443.345,528.085 436.896,528.953 436.896,540C436.896,547.265 440.787,552.885 448.966,552.885C459.991,552.467 462.319,546.568 462.319,540C462.319,533.432 459.129,528.085 448.979,528.085Z"/>
        </g>
        <g transform="matrix(-0.683147,0,0,0.683147,942.795,460.277)">
            <path d="M448.979,528.085C443.345,528.085 436.896,528.953 436.896,540C436.896,547.265 440.787,552.885 448.966,552.885C459.991,552.467 462.319,546.568 462.319,540C462.319,533.432 459.129,528.085 448.979,528.085Z"/>
        </g>
    </g>
</svg>
